<?xml version="1.0" encoding="UTF-8" standalone="no"?><!DOCTYPE svg PUBLIC "-//W3C//DTD SVG 1.1//EN" "http://www.w3.org/Graphics/SVG/1.1/DTD/svg11.dtd"><svg width="100%" height="100%" viewBox="0 0 236 237" version="1.1" xmlns="http://www.w3.org/2000/svg" xmlns:xlink="http://www.w3.org/1999/xlink" style="fill-rule:evenodd;clip-rule:evenodd;stroke-linejoin:round;stroke-miterlimit:2;"><g><path d="M117.724,0c64.974,0 117.724,53.098 117.724,118.499c0,65.401 -52.75,118.499 -117.724,118.499c-64.974,0 -117.724,-53.098 -117.724,-118.499c0,-65.401 52.75,-118.499 117.724,-118.499Zm43.425,64.698c1.177,-1.519 2.508,-3.011 3.979,-4.444c5.574,-5.697 15.352,-9.609 23.016,-11.731c3.8,6.987 7.779,16.738 7.555,24.704c-0.022,5.274 -0.967,10.156 -2.605,14.106c0.074,0.789 0.113,1.587 0.113,2.394l0,50.057c0,13.813 -11.215,25.028 -25.029,25.028l-16.585,0c-1.513,0 -2.908,0.817 -3.649,2.136c-0.741,1.319 -0.713,2.935 0.074,4.227c7.211,11.839 21.963,36.059 21.963,36.059c0,0 -27.119,-23.728 -40.792,-35.693c-4.958,-4.338 -11.322,-6.729 -17.91,-6.729c-15.712,0 -44.009,0 -44.009,0c-13.814,0 -25.029,-11.215 -25.029,-25.028l0,-50.057c0,-0.861 0.044,-1.711 0.129,-2.548c-1.602,-3.884 -2.546,-8.649 -2.614,-13.795c-0.297,-7.964 3.594,-17.751 7.329,-24.772c7.684,2.052 17.497,5.875 23.122,11.52c1.536,1.469 2.922,3.002 4.144,4.566l86.798,0Z" style="fill:#fff;"/></g></svg>