<?xml version="1.0" encoding="UTF-8" standalone="no"?><!DOCTYPE svg PUBLIC "-//W3C//DTD SVG 1.1//EN" "http://www.w3.org/Graphics/SVG/1.1/DTD/svg11.dtd"><svg width="100%" height="100%" viewBox="0 0 176 176" version="1.1" xmlns="http://www.w3.org/2000/svg" style="fill-rule:evenodd;clip-rule:evenodd;stroke-linecap:round;stroke-linejoin:round;stroke-miterlimit:1.5;"><g><circle cx="87.816" cy="87.816" r="87.816" style="fill:#f9f9f9;"/><g><path d="M132.469,51.667l-31.294,52.651l-58.012,19.647l31.293,-52.651l58.013,-19.647Zm-44.653,26.701c5.215,0 9.448,4.233 9.448,9.448c0,5.215 -4.233,9.448 -9.448,9.448c-5.215,0 -9.448,-4.233 -9.448,-9.448c0,-5.215 4.233,-9.448 9.448,-9.448Z" style="fill:#d72f48;"/><g><path d="M87.816,13.823c18.746,0 35.874,6.986 48.919,18.495c10.446,9.217 18.274,21.334 22.218,35.086c1.86,6.485 2.856,13.333 2.856,20.412c0,13.125 -3.425,25.457 -9.429,36.149c-5.007,8.917 -11.807,16.694 -19.911,22.84c-12.414,9.415 -27.886,15.004 -44.653,15.004c-24.405,0 -46.067,-11.841 -59.548,-30.086c-9.077,-12.285 -14.445,-27.474 -14.445,-43.907c0,-20.1 8.031,-38.339 21.058,-51.679c13.44,-13.765 32.197,-22.314 52.935,-22.314Z" style="fill:none;stroke:#d72f48;stroke-width:4.17px;"/><circle cx="120.044" cy="24.222" r="15.449" style="fill:#f9f9f9;"/><circle cx="58.613" cy="24.222" r="15.449" style="fill:#f9f9f9;"/><path d="M11.872,99.94c7.453,-4.215 18.351,0.934 24.32,11.489c5.968,10.556 4.763,22.548 -2.69,26.763c-7.454,4.214 -18.351,-0.934 -24.32,-11.49c-5.969,-10.555 -4.764,-22.547 2.69,-26.762Z" style="fill:#f9f9f9;"/><circle cx="111.77" cy="148.417" r="23.954" style="fill:#f9f9f9;"/><circle cx="141.077" cy="134.515" r="15.449" style="fill:#f9f9f9;"/></g></g></g></svg>