<?xml version="1.0" encoding="UTF-8" standalone="no"?><!DOCTYPE svg PUBLIC "-//W3C//DTD SVG 1.1//EN" "http://www.w3.org/Graphics/SVG/1.1/DTD/svg11.dtd"><svg width="100%" height="100%" viewBox="0 0 144 172" version="1.1" xmlns="http://www.w3.org/2000/svg" style="fill-rule:evenodd;clip-rule:evenodd;stroke-linejoin:round;stroke-miterlimit:2;"><g><g><path d="M0,6.535c0,-3.607 2.928,-6.535 6.535,-6.535l13.069,0c3.607,0 6.535,2.928 6.535,6.535l0,158.113c0,3.607 -2.928,6.535 -6.535,6.535l-13.069,0c-3.607,0 -6.535,-2.928 -6.535,-6.535l0,-158.113Z" style="fill:#d72f48;"/><path d="M0,2.823c0,-1.558 1.265,-2.823 2.823,-2.823l99.134,0c1.558,0 2.823,1.265 2.823,2.823l0,22.584c0,1.558 -1.265,2.823 -2.823,2.823l-99.134,0c-1.558,0 -2.823,-1.265 -2.823,-2.823l0,-22.584Z" style="fill:#d72f48;"/><path d="M0,145.776c0,-1.558 1.265,-2.823 2.823,-2.823l99.134,0c1.558,0 2.823,1.265 2.823,2.823l0,22.584c0,1.558 -1.265,2.823 -2.823,2.823l-99.134,0c-1.558,0 -2.823,-1.265 -2.823,-2.823l0,-22.584Z" style="fill:#d72f48;"/></g><path d="M143.373,85.933l-35.464,31.047l0,-62.094l35.464,31.047Z" style="fill:#d72f48;"/><path d="M126.45,75.713c0,-1.363 -1.106,-2.469 -2.469,-2.469l-67.633,0c-1.362,0 -2.469,1.106 -2.469,2.469l0,19.757c0,1.362 1.107,2.469 2.469,2.469l67.633,0c1.363,0 2.469,-1.107 2.469,-2.469l0,-19.757Z" style="fill:#d72f48;"/></g></svg>