<svg width="100%" height="100%" viewBox="0 0 119 129" version="1.1" xmlns="http://www.w3.org/2000/svg" style="fill-rule:evenodd;clip-rule:evenodd;stroke-linejoin:round;stroke-miterlimit:2;"><g><path d="M116.373,117.227c2.998,-2.574 3.343,-7.098 0.77,-10.097l-36.801,-42.878c-2.574,-2.999 -7.098,-3.344 -10.097,-0.77l-10.866,9.326c-2.999,2.574 -3.344,7.098 -0.771,10.097l36.801,42.878c2.574,2.999 7.098,3.344 10.097,0.77l10.867,-9.326Z" style="fill:#f18805;"/><path d="M78.501,15.558c16.044,18.694 13.893,46.898 -4.801,62.943c-18.695,16.044 -46.898,13.893 -62.943,-4.801c-16.045,-18.695 -13.894,-46.898 4.801,-62.943c18.694,-16.045 46.898,-13.894 62.943,4.801Zm-10.194,8.749c11.216,13.068 9.712,32.784 -3.356,44c-13.069,11.216 -32.784,9.712 -44,-3.356c-11.216,-13.069 -9.713,-32.784 3.356,-44c13.068,-11.216 32.784,-9.713 44,3.356Z" style="fill:#f18805;"/></g></svg>