<?xml version="1.0" encoding="UTF-8" standalone="no"?><!DOCTYPE svg PUBLIC "-//W3C//DTD SVG 1.1//EN" "http://www.w3.org/Graphics/SVG/1.1/DTD/svg11.dtd"><svg width="100%" height="100%" viewBox="0 0 103 86" version="1.1" xmlns="http://www.w3.org/2000/svg" xmlns:xlink="http://www.w3.org/1999/xlink" style="fill-rule:evenodd;clip-rule:evenodd;stroke-linecap:round;stroke-linejoin:round;stroke-miterlimit:1.5;"><g><path d="M15.899,33.224c-0.352,-0.165 -15.064,-7.222 -6.393,-26.462c0,0 16.545,21.67 40.551,20.41c-0.33,-1.425 -0.505,-2.91 -0.505,-4.435c0,-10.824 8.788,-19.612 19.612,-19.612c5.566,0 10.594,2.324 14.165,6.053c2.669,-0.386 7.413,-1.473 12.976,-4.535c0,0 -2.027,7.47 -8.744,10.829c0,0 6.022,-0.174 11.407,-2.953c0,0 -6.047,8.408 -10.158,10.866c0.213,5.567 0.168,45.462 -43.946,56.992c-14.568,3.808 -29.045,0.244 -41.739,-7.809c0,0 17.465,2.392 29.071,-8.38c-5.474,0.28 -13.768,-1.639 -19.005,-13.89c0,0 4.553,1.626 10.275,-0.092c-6.3,-0.553 -15.989,-3.965 -16.692,-19.598c0,0 3.554,2.444 9.125,2.616l0.006,0.003l0.019,-0.003l-0.025,0Z" style="fill:none;stroke:url(#_Linear1);stroke-width:6.25px;"/></g><defs><linearGradient id="_Linear1" x1="0" y1="0" x2="1" y2="0" gradientUnits="userSpaceOnUse" gradientTransform="matrix(41.3746,0,0,20.4629,9.50552,16.9937)"><stop offset="0" style="stop-color:#d72f48;stop-opacity:1"/><stop offset="0.62" style="stop-color:#d9354a;stop-opacity:1"/><stop offset="0.82" style="stop-color:#de4550;stop-opacity:1"/><stop offset="1" style="stop-color:#e35757;stop-opacity:1"/></linearGradient></defs></svg>